<?xml version="1.0" encoding="UTF-8" standalone="no"?>
<!DOCTYPE svg PUBLIC "-//W3C//DTD SVG 1.1//EN"
 "http://www.w3.org/Graphics/SVG/1.1/DTD/svg11.dtd">
<!-- Generated by graphviz version 2.38.0 (20140413.2041)
 -->
<!-- Title: controllers_diagram Pages: 1 -->
<svg width="580pt" height="299pt"
 viewBox="0.00 0.00 580.03 299.22" xmlns="http://www.w3.org/2000/svg" xmlns:xlink="http://www.w3.org/1999/xlink">
<g id="graph0" class="graph" transform="scale(1 1) rotate(0) translate(172.339 154.763)">
<title>controllers_diagram</title>
<polygon fill="white" stroke="none" points="-172.339,144.461 -172.339,-154.763 407.688,-154.763 407.688,144.461 -172.339,144.461"/>
<!-- _diagram_info -->
<g id="node1" class="node"><title>_diagram_info</title>
<text text-anchor="start" x="204.312" y="-115.1" font-family="Times,serif" font-size="13.00">Controllers diagram</text>
<text text-anchor="start" x="204.312" y="-102.1" font-family="Times,serif" font-size="13.00">Date: Aug 25 2014 &#45; 23:40</text>
<text text-anchor="start" x="204.312" y="-89.1" font-family="Times,serif" font-size="13.00">Migration version: 20140826042447</text>
<text text-anchor="start" x="204.312" y="-76.1" font-family="Times,serif" font-size="13.00">Generated by RailRoady 1.1.1</text>
<text text-anchor="start" x="204.312" y="-63.1" font-family="Times,serif" font-size="13.00">http://railroady.prestonlee.com</text>
</g>
<!-- ApplicationController -->
<g id="node2" class="node"><title>ApplicationController</title>
<path fill="none" stroke="black" d="M-30.8776,-60.2627C-30.8776,-60.2627 147.757,-60.2627 147.757,-60.2627 153.757,-60.2627 159.757,-66.2627 159.757,-72.2627 159.757,-72.2627 159.757,-138.263 159.757,-138.263 159.757,-144.263 153.757,-150.263 147.757,-150.263 147.757,-150.263 -30.8776,-150.263 -30.8776,-150.263 -36.8776,-150.263 -42.8776,-144.263 -42.8776,-138.263 -42.8776,-138.263 -42.8776,-72.2627 -42.8776,-72.2627 -42.8776,-66.2627 -36.8776,-60.2627 -30.8776,-60.2627"/>
<text text-anchor="middle" x="58.4398" y="-135.063" font-family="Times,serif" font-size="14.00">ApplicationController</text>
<polyline fill="none" stroke="black" points="-42.8776,-128.263 159.757,-128.263 "/>
<text text-anchor="start" x="-34.8776" y="-113.063" font-family="Times,serif" font-size="14.00">_one_time_conditions_valid_18?</text>
<polyline fill="none" stroke="black" points="-42.8776,-106.263 159.757,-106.263 "/>
<polyline fill="none" stroke="black" points="-42.8776,-82.2627 159.757,-82.2627 "/>
<text text-anchor="start" x="-34.8776" y="-67.0627" font-family="Times,serif" font-size="14.00">_layout</text>
</g>
<!-- BlogPostsController -->
<g id="node3" class="node"><title>BlogPostsController</title>
<path fill="none" stroke="black" d="M56.2931,105.296C56.2931,105.296 162.638,105.296 162.638,105.296 168.638,105.296 174.638,99.2957 174.638,93.2957 174.638,93.2957 174.638,13.2957 174.638,13.2957 174.638,7.29574 168.638,1.29574 162.638,1.29574 162.638,1.29574 56.2931,1.29574 56.2931,1.29574 50.2931,1.29574 44.2931,7.29574 44.2931,13.2957 44.2931,13.2957 44.2931,93.2957 44.2931,93.2957 44.2931,99.2957 50.2931,105.296 56.2931,105.296"/>
<text text-anchor="middle" x="109.465" y="16.4957" font-family="Times,serif" font-size="14.00">BlogPostsController</text>
<polyline fill="none" stroke="black" points="44.2931,23.2957 174.638,23.2957 "/>
<text text-anchor="start" x="52.2931" y="38.4957" font-family="Times,serif" font-size="14.00">index</text>
<text text-anchor="start" x="52.2931" y="52.4957" font-family="Times,serif" font-size="14.00">show</text>
<polyline fill="none" stroke="black" points="44.2931,59.2957 174.638,59.2957 "/>
<polyline fill="none" stroke="black" points="44.2931,83.2957 174.638,83.2957 "/>
<text text-anchor="start" x="52.2931" y="98.4957" font-family="Times,serif" font-size="14.00">_layout</text>
</g>
<!-- ApplicationController&#45;&gt;BlogPostsController -->
<g id="edge1" class="edge"><title>ApplicationController&#45;&gt;BlogPostsController</title>
<path fill="none" stroke="black" d="M72.9252,-60.2503C79.0831,-41.1151 86.3024,-18.6818 92.6904,1.16846"/>
</g>
<!-- CommentsController -->
<g id="node4" class="node"><title>CommentsController</title>
<path fill="none" stroke="black" d="M-129.393,139.961C-129.393,139.961 -19.1788,139.961 -19.1788,139.961 -13.1788,139.961 -7.17882,133.961 -7.17882,127.961 -7.17882,127.961 -7.17882,47.9605 -7.17882,47.9605 -7.17882,41.9605 -13.1788,35.9605 -19.1788,35.9605 -19.1788,35.9605 -129.393,35.9605 -129.393,35.9605 -135.393,35.9605 -141.393,41.9605 -141.393,47.9605 -141.393,47.9605 -141.393,127.961 -141.393,127.961 -141.393,133.961 -135.393,139.961 -129.393,139.961"/>
<text text-anchor="middle" x="-74.2858" y="51.1605" font-family="Times,serif" font-size="14.00">CommentsController</text>
<polyline fill="none" stroke="black" points="-141.393,57.9605 -7.17882,57.9605 "/>
<text text-anchor="start" x="-133.393" y="73.1605" font-family="Times,serif" font-size="14.00">index</text>
<text text-anchor="start" x="-133.393" y="87.1605" font-family="Times,serif" font-size="14.00">show</text>
<polyline fill="none" stroke="black" points="-141.393,93.9605 -7.17882,93.9605 "/>
<polyline fill="none" stroke="black" points="-141.393,117.961 -7.17882,117.961 "/>
<text text-anchor="start" x="-133.393" y="133.161" font-family="Times,serif" font-size="14.00">_layout</text>
</g>
<!-- ApplicationController&#45;&gt;CommentsController -->
<g id="edge2" class="edge"><title>ApplicationController&#45;&gt;CommentsController</title>
<path fill="none" stroke="black" d="M27.3215,-59.9604C7.63008,-31.2934 -17.8937,5.86431 -38.4332,35.766"/>
</g>
<!-- HomeController -->
<g id="node5" class="node"><title>HomeController</title>
<path fill="none" stroke="black" d="M-156.339,-40.5888C-156.339,-40.5888 -72.5802,-40.5888 -72.5802,-40.5888 -66.5802,-40.5888 -60.5802,-46.5888 -60.5802,-52.5888 -60.5802,-52.5888 -60.5802,-118.589 -60.5802,-118.589 -60.5802,-124.589 -66.5802,-130.589 -72.5802,-130.589 -72.5802,-130.589 -156.339,-130.589 -156.339,-130.589 -162.339,-130.589 -168.339,-124.589 -168.339,-118.589 -168.339,-118.589 -168.339,-52.5888 -168.339,-52.5888 -168.339,-46.5888 -162.339,-40.5888 -156.339,-40.5888"/>
<text text-anchor="middle" x="-114.46" y="-115.389" font-family="Times,serif" font-size="14.00">HomeController</text>
<polyline fill="none" stroke="black" points="-168.339,-108.589 -60.5802,-108.589 "/>
<text text-anchor="start" x="-160.339" y="-93.3888" font-family="Times,serif" font-size="14.00">index</text>
<polyline fill="none" stroke="black" points="-168.339,-86.5888 -60.5802,-86.5888 "/>
<polyline fill="none" stroke="black" points="-168.339,-62.5888 -60.5802,-62.5888 "/>
<text text-anchor="start" x="-160.339" y="-47.3888" font-family="Times,serif" font-size="14.00">_layout</text>
</g>
<!-- ApplicationController&#45;&gt;HomeController -->
<g id="edge3" class="edge"><title>ApplicationController&#45;&gt;HomeController</title>
<path fill="none" stroke="black" d="M-43.1366,-93.7045C-49.0171,-93.0354 -54.8012,-92.3772 -60.3755,-91.7429"/>
</g>
</g>
</svg>
