<?xml version="1.0" encoding="UTF-8" standalone="no"?>
<!DOCTYPE svg PUBLIC "-//W3C//DTD SVG 1.1//EN"
 "http://www.w3.org/Graphics/SVG/1.1/DTD/svg11.dtd">
<!-- Generated by graphviz version 2.38.0 (20140413.2041)
 -->
<!-- Title: models_diagram Pages: 1 -->
<svg width="680pt" height="634pt"
 viewBox="0.00 0.00 679.51 634.00" xmlns="http://www.w3.org/2000/svg" xmlns:xlink="http://www.w3.org/1999/xlink">
<g id="graph0" class="graph" transform="scale(1 1) rotate(0) translate(4 630)">
<title>models_diagram</title>
<polygon fill="white" stroke="none" points="-4,4 -4,-630 675.508,-630 675.508,4 -4,4"/>
<!-- _diagram_info -->
<g id="node1" class="node"><title>_diagram_info</title>
<text text-anchor="start" x="173.315" y="-611.6" font-family="Times,serif" font-size="13.00">Models diagram</text>
<text text-anchor="start" x="173.315" y="-598.6" font-family="Times,serif" font-size="13.00">Date: Aug 25 2014 &#45; 23:39</text>
<text text-anchor="start" x="173.315" y="-585.6" font-family="Times,serif" font-size="13.00">Migration version: 20140826042447</text>
<text text-anchor="start" x="173.315" y="-572.6" font-family="Times,serif" font-size="13.00">Generated by RailRoady 1.1.1</text>
<text text-anchor="start" x="173.315" y="-559.6" font-family="Times,serif" font-size="13.00">http://railroady.prestonlee.com</text>
</g>
<!-- AdminUser -->
<g id="node2" class="node"><title>AdminUser</title>
<path fill="none" stroke="black" d="M138.725,-303.5C138.725,-303.5 319.281,-303.5 319.281,-303.5 325.281,-303.5 331.281,-309.5 331.281,-315.5 331.281,-315.5 331.281,-503.5 331.281,-503.5 331.281,-509.5 325.281,-515.5 319.281,-515.5 319.281,-515.5 138.725,-515.5 138.725,-515.5 132.725,-515.5 126.725,-509.5 126.725,-503.5 126.725,-503.5 126.725,-315.5 126.725,-315.5 126.725,-309.5 132.725,-303.5 138.725,-303.5"/>
<text text-anchor="middle" x="229.003" y="-500.3" font-family="Times,serif" font-size="14.00">AdminUser</text>
<polyline fill="none" stroke="black" points="126.725,-493.5 331.281,-493.5 "/>
<text text-anchor="start" x="134.725" y="-478.3" font-family="Times,serif" font-size="14.00">id :integer</text>
<text text-anchor="start" x="134.725" y="-464.3" font-family="Times,serif" font-size="14.00">email :string</text>
<text text-anchor="start" x="134.725" y="-450.3" font-family="Times,serif" font-size="14.00">encrypted_password :string</text>
<text text-anchor="start" x="134.725" y="-436.3" font-family="Times,serif" font-size="14.00">reset_password_token :string</text>
<text text-anchor="start" x="134.725" y="-422.3" font-family="Times,serif" font-size="14.00">reset_password_sent_at :datetime</text>
<text text-anchor="start" x="134.725" y="-408.3" font-family="Times,serif" font-size="14.00">remember_created_at :datetime</text>
<text text-anchor="start" x="134.725" y="-394.3" font-family="Times,serif" font-size="14.00">sign_in_count :integer</text>
<text text-anchor="start" x="134.725" y="-380.3" font-family="Times,serif" font-size="14.00">current_sign_in_at :datetime</text>
<text text-anchor="start" x="134.725" y="-366.3" font-family="Times,serif" font-size="14.00">last_sign_in_at :datetime</text>
<text text-anchor="start" x="134.725" y="-352.3" font-family="Times,serif" font-size="14.00">current_sign_in_ip :string</text>
<text text-anchor="start" x="134.725" y="-338.3" font-family="Times,serif" font-size="14.00">last_sign_in_ip :string</text>
<text text-anchor="start" x="134.725" y="-324.3" font-family="Times,serif" font-size="14.00">created_at :datetime</text>
<text text-anchor="start" x="134.725" y="-310.3" font-family="Times,serif" font-size="14.00">updated_at :datetime</text>
</g>
<!-- BlogCategory -->
<g id="node3" class="node"><title>BlogCategory</title>
<path fill="none" stroke="black" d="M361.73,-387.5C361.73,-387.5 432.275,-387.5 432.275,-387.5 438.275,-387.5 444.275,-393.5 444.275,-399.5 444.275,-399.5 444.275,-419.5 444.275,-419.5 444.275,-425.5 438.275,-431.5 432.275,-431.5 432.275,-431.5 361.73,-431.5 361.73,-431.5 355.73,-431.5 349.73,-425.5 349.73,-419.5 349.73,-419.5 349.73,-399.5 349.73,-399.5 349.73,-393.5 355.73,-387.5 361.73,-387.5"/>
<text text-anchor="middle" x="397.003" y="-416.3" font-family="Times,serif" font-size="14.00">BlogCategory</text>
<polyline fill="none" stroke="black" points="349.73,-409.5 444.275,-409.5 "/>
<text text-anchor="start" x="357.73" y="-394.3" font-family="Times,serif" font-size="14.00">id :integer</text>
</g>
<!-- BlogPost -->
<g id="node4" class="node"><title>BlogPost</title>
<path fill="none" stroke="black" d="M342.497,-151.5C342.497,-151.5 451.508,-151.5 451.508,-151.5 457.508,-151.5 463.508,-157.5 463.508,-163.5 463.508,-163.5 463.508,-253.5 463.508,-253.5 463.508,-259.5 457.508,-265.5 451.508,-265.5 451.508,-265.5 342.497,-265.5 342.497,-265.5 336.497,-265.5 330.497,-259.5 330.497,-253.5 330.497,-253.5 330.497,-163.5 330.497,-163.5 330.497,-157.5 336.497,-151.5 342.497,-151.5"/>
<text text-anchor="middle" x="397.003" y="-250.3" font-family="Times,serif" font-size="14.00">BlogPost</text>
<polyline fill="none" stroke="black" points="330.497,-243.5 463.508,-243.5 "/>
<text text-anchor="start" x="338.497" y="-228.3" font-family="Times,serif" font-size="14.00">id :integer</text>
<text text-anchor="start" x="338.497" y="-214.3" font-family="Times,serif" font-size="14.00">title :string</text>
<text text-anchor="start" x="338.497" y="-200.3" font-family="Times,serif" font-size="14.00">body :text</text>
<text text-anchor="start" x="338.497" y="-186.3" font-family="Times,serif" font-size="14.00">published_at :date</text>
<text text-anchor="start" x="338.497" y="-172.3" font-family="Times,serif" font-size="14.00">created_at :datetime</text>
<text text-anchor="start" x="338.497" y="-158.3" font-family="Times,serif" font-size="14.00">updated_at :datetime</text>
</g>
<!-- BlogCategory&#45;&gt;BlogPost -->
<g id="edge2" class="edge"><title>BlogCategory&#45;&gt;BlogPost</title>
<path fill="none" stroke="#88820e" d="M397.003,-378.902C397.003,-351.792 397.003,-310.691 397.003,-275.763"/>
<ellipse fill="none" stroke="#88820e" cx="397.003" cy="-383.204" rx="4" ry="4"/>
<polygon fill="#88820e" stroke="#88820e" points="397.003,-275.62 401.503,-265.62 397.003,-270.62 397.003,-265.62 397.003,-265.62 397.003,-265.62 397.003,-270.62 392.503,-265.62 397.003,-275.62 397.003,-275.62"/>
</g>
<!-- Comment -->
<g id="node5" class="node"><title>Comment</title>
<path fill="none" stroke="black" d="M468.497,-0.5C468.497,-0.5 577.508,-0.5 577.508,-0.5 583.508,-0.5 589.508,-6.5 589.508,-12.5 589.508,-12.5 589.508,-88.5 589.508,-88.5 589.508,-94.5 583.508,-100.5 577.508,-100.5 577.508,-100.5 468.497,-100.5 468.497,-100.5 462.497,-100.5 456.497,-94.5 456.497,-88.5 456.497,-88.5 456.497,-12.5 456.497,-12.5 456.497,-6.5 462.497,-0.5 468.497,-0.5"/>
<text text-anchor="middle" x="523.003" y="-85.3" font-family="Times,serif" font-size="14.00">Comment</text>
<polyline fill="none" stroke="black" points="456.497,-78.5 589.508,-78.5 "/>
<text text-anchor="start" x="464.497" y="-63.3" font-family="Times,serif" font-size="14.00">id :integer</text>
<text text-anchor="start" x="464.497" y="-49.3" font-family="Times,serif" font-size="14.00">author :string</text>
<text text-anchor="start" x="464.497" y="-35.3" font-family="Times,serif" font-size="14.00">body :text</text>
<text text-anchor="start" x="464.497" y="-21.3" font-family="Times,serif" font-size="14.00">created_at :datetime</text>
<text text-anchor="start" x="464.497" y="-7.3" font-family="Times,serif" font-size="14.00">updated_at :datetime</text>
</g>
<!-- BlogPost&#45;&gt;Comment -->
<g id="edge8" class="edge"><title>BlogPost&#45;&gt;Comment</title>
<path fill="none" stroke="#4cfb9e" d="M447.563,-144.902C457.258,-132.898 467.363,-120.387 476.909,-108.568"/>
<ellipse fill="none" stroke="#4cfb9e" cx="445.005" cy="-148.069" rx="4.00002" ry="4.00002"/>
<polygon fill="#4cfb9e" stroke="#4cfb9e" points="477.133,-108.291 486.917,-103.339 480.275,-104.401 483.417,-100.512 483.417,-100.512 483.417,-100.512 480.275,-104.401 479.916,-97.684 477.133,-108.291 477.133,-108.291"/>
</g>
<!-- ActsAsTaggableOn::Tagging -->
<g id="node8" class="node"><title>ActsAsTaggableOn::Tagging</title>
<ellipse fill="none" stroke="black" cx="113.003" cy="-50.5" rx="113.006" ry="18"/>
<text text-anchor="middle" x="113.003" y="-46.3" font-family="Times,serif" font-size="14.00">ActsAsTaggableOn::Tagging</text>
</g>
<!-- BlogPost&#45;&gt;ActsAsTaggableOn::Tagging -->
<g id="edge4" class="edge"><title>BlogPost&#45;&gt;ActsAsTaggableOn::Tagging</title>
<path fill="none" stroke="#24a1d0" d="M322.401,-200.559C269.677,-192.187 200.191,-173.722 152.561,-133 135.996,-118.837 125.773,-96.1264 119.88,-78.272"/>
<ellipse fill="none" stroke="#24a1d0" cx="326.428" cy="-201.17" rx="4.00001" ry="4.00001"/>
<polygon fill="#24a1d0" stroke="#24a1d0" points="119.873,-78.249 121.273,-67.3728 118.421,-73.4647 116.968,-68.6804 116.968,-68.6804 116.968,-68.6804 118.421,-73.4647 112.662,-69.988 119.873,-78.249 119.873,-78.249"/>
<text text-anchor="middle" x="176.723" y="-121.8" font-family="Times,serif" font-size="14.00">taggings</text>
</g>
<!-- BlogPost&#45;&gt;ActsAsTaggableOn::Tagging -->
<g id="edge6" class="edge"><title>BlogPost&#45;&gt;ActsAsTaggableOn::Tagging</title>
<path fill="none" stroke="#b5301b" d="M323.162,-169.261C301.281,-157.762 277.328,-145.007 255.458,-133 219.398,-113.203 178.702,-89.814 150.069,-73.1811"/>
<ellipse fill="none" stroke="#b5301b" cx="326.954" cy="-171.251" rx="4.00002" ry="4.00002"/>
<polygon fill="#b5301b" stroke="#b5301b" points="149.861,-73.0601 143.48,-64.1417 145.539,-70.5457 141.217,-68.0313 141.217,-68.0313 141.217,-68.0313 145.539,-70.5457 138.954,-71.9209 149.861,-73.0601 149.861,-73.0601"/>
<text text-anchor="middle" x="291.775" y="-121.8" font-family="Times,serif" font-size="14.00">tag_taggings</text>
</g>
<!-- ActsAsTaggableOn::Tag -->
<g id="node9" class="node"><title>ActsAsTaggableOn::Tag</title>
<ellipse fill="none" stroke="black" cx="341.003" cy="-50.5" rx="97.0617" ry="18"/>
<text text-anchor="middle" x="341.003" y="-46.3" font-family="Times,serif" font-size="14.00">ActsAsTaggableOn::Tag</text>
</g>
<!-- BlogPost&#45;&gt;ActsAsTaggableOn::Tag -->
<g id="edge5" class="edge"><title>BlogPost&#45;&gt;ActsAsTaggableOn::Tag</title>
<path fill="none" stroke="#9f7710" d="M337.552,-142.19C336.057,-139.176 334.719,-136.109 333.575,-133 327.175,-115.609 329.224,-94.7833 332.775,-78.5371"/>
<polygon fill="#9f7710" stroke="#9f7710" points="337.623,-142.318 338.54,-153.245 340.049,-146.69 342.475,-151.062 342.475,-151.062 342.475,-151.062 340.049,-146.69 346.41,-148.878 337.623,-142.318 337.623,-142.318"/>
<polygon fill="#9f7710" stroke="#9f7710" points="332.832,-78.3075 339.617,-69.6931 334.042,-73.456 335.251,-68.6045 335.251,-68.6045 335.251,-68.6045 334.042,-73.456 330.885,-67.5159 332.832,-78.3075 332.832,-78.3075"/>
<text text-anchor="middle" x="361.217" y="-121.8" font-family="Times,serif" font-size="14.00">base_tags</text>
</g>
<!-- BlogPost&#45;&gt;ActsAsTaggableOn::Tag -->
<g id="edge7" class="edge"><title>BlogPost&#45;&gt;ActsAsTaggableOn::Tag</title>
<path fill="none" stroke="#b31905" d="M393.993,-141.25C392.558,-133.616 390.614,-126.049 388.003,-119 382.279,-103.551 372.168,-88.3168 362.787,-76.2418"/>
<polygon fill="#b31905" stroke="#b31905" points="394.019,-141.413 391.158,-151.998 394.81,-146.35 395.601,-151.287 395.601,-151.287 395.601,-151.287 394.81,-146.35 400.044,-150.575 394.019,-141.413 394.019,-141.413"/>
<polygon fill="#b31905" stroke="#b31905" points="362.756,-76.2026 359.973,-65.5956 359.614,-72.3129 356.472,-68.4232 356.472,-68.4232 356.472,-68.4232 359.614,-72.3129 352.971,-71.2507 362.756,-76.2026 362.756,-76.2026"/>
<text text-anchor="middle" x="404.279" y="-121.8" font-family="Times,serif" font-size="14.00">tags</text>
</g>
<!-- Page -->
<g id="node6" class="node"><title>Page</title>
<path fill="none" stroke="black" d="M550.497,-359.5C550.497,-359.5 659.508,-359.5 659.508,-359.5 665.508,-359.5 671.508,-365.5 671.508,-371.5 671.508,-371.5 671.508,-447.5 671.508,-447.5 671.508,-453.5 665.508,-459.5 659.508,-459.5 659.508,-459.5 550.497,-459.5 550.497,-459.5 544.497,-459.5 538.497,-453.5 538.497,-447.5 538.497,-447.5 538.497,-371.5 538.497,-371.5 538.497,-365.5 544.497,-359.5 550.497,-359.5"/>
<text text-anchor="middle" x="605.003" y="-444.3" font-family="Times,serif" font-size="14.00">Page</text>
<polyline fill="none" stroke="black" points="538.497,-437.5 671.508,-437.5 "/>
<text text-anchor="start" x="546.497" y="-422.3" font-family="Times,serif" font-size="14.00">id :integer</text>
<text text-anchor="start" x="546.497" y="-408.3" font-family="Times,serif" font-size="14.00">name :string</text>
<text text-anchor="start" x="546.497" y="-394.3" font-family="Times,serif" font-size="14.00">body :text</text>
<text text-anchor="start" x="546.497" y="-380.3" font-family="Times,serif" font-size="14.00">created_at :datetime</text>
<text text-anchor="start" x="546.497" y="-366.3" font-family="Times,serif" font-size="14.00">updated_at :datetime</text>
</g>
<!-- ActiveRecord::Base -->
<g id="node7" class="node"><title>ActiveRecord::Base</title>
<ellipse fill="none" stroke="black" cx="472.003" cy="-589.5" rx="81.1422" ry="18"/>
<text text-anchor="middle" x="472.003" y="-585.3" font-family="Times,serif" font-size="14.00">ActiveRecord::Base</text>
</g>
<!-- ActiveRecord::Base&#45;&gt;AdminUser -->
<g id="edge1" class="edge"><title>ActiveRecord::Base&#45;&gt;AdminUser</title>
<path fill="none" stroke="black" d="M438.873,-573.058C411.532,-559.648 372.287,-538.834 341.003,-516 337.766,-513.638 334.525,-511.19 331.289,-508.675"/>
</g>
<!-- ActiveRecord::Base&#45;&gt;BlogCategory -->
<g id="edge3" class="edge"><title>ActiveRecord::Base&#45;&gt;BlogCategory</title>
<path fill="none" stroke="black" d="M464.811,-571.433C451.026,-538.715 420.918,-467.259 405.896,-431.607"/>
</g>
<!-- ActiveRecord::Base&#45;&gt;BlogPost -->
<g id="edge9" class="edge"><title>ActiveRecord::Base&#45;&gt;BlogPost</title>
<path fill="none" stroke="black" d="M473.606,-571.259C477.235,-526.019 483.541,-400.669 453.003,-303 449.022,-290.268 442.987,-277.458 436.33,-265.578"/>
</g>
<!-- ActiveRecord::Base&#45;&gt;Comment -->
<g id="edge10" class="edge"><title>ActiveRecord::Base&#45;&gt;Comment</title>
<path fill="none" stroke="black" d="M478.574,-571.421C482.277,-561.046 486.623,-547.444 489.003,-535 518.952,-378.377 523.192,-188.697 523.375,-100.721"/>
</g>
<!-- ActiveRecord::Base&#45;&gt;Page -->
<g id="edge11" class="edge"><title>ActiveRecord::Base&#45;&gt;Page</title>
<path fill="none" stroke="black" d="M490.242,-571.466C500.655,-561.329 513.655,-547.954 524.003,-535 542.913,-511.326 561.528,-483.156 576.135,-459.605"/>
</g>
</g>
</svg>
