<?xml version="1.0" encoding="UTF-8" standalone="no"?>
<!DOCTYPE svg PUBLIC "-//W3C//DTD SVG 1.1//EN"
 "http://www.w3.org/Graphics/SVG/1.1/DTD/svg11.dtd">
<!-- Generated by graphviz version 2.38.0 (20140413.2041)
 -->
<!-- Title: models_diagram Pages: 1 -->
<svg width="586pt" height="313pt"
 viewBox="0.00 0.00 586.30 313.00" xmlns="http://www.w3.org/2000/svg" xmlns:xlink="http://www.w3.org/1999/xlink">
<g id="graph0" class="graph" transform="scale(1 1) rotate(0) translate(4 309)">
<title>models_diagram</title>
<polygon fill="white" stroke="none" points="-4,4 -4,-309 582.3,-309 582.3,4 -4,4"/>
<!-- _diagram_info -->
<g id="node1" class="node"><title>_diagram_info</title>
<text text-anchor="start" x="159.315" y="-290.6" font-family="Times,serif" font-size="13.00">Models diagram</text>
<text text-anchor="start" x="159.315" y="-277.6" font-family="Times,serif" font-size="13.00">Date: Aug 25 2014 &#45; 23:39</text>
<text text-anchor="start" x="159.315" y="-264.6" font-family="Times,serif" font-size="13.00">Migration version: 20140826042447</text>
<text text-anchor="start" x="159.315" y="-251.6" font-family="Times,serif" font-size="13.00">Generated by RailRoady 1.1.1</text>
<text text-anchor="start" x="159.315" y="-238.6" font-family="Times,serif" font-size="13.00">http://railroady.prestonlee.com</text>
</g>
<!-- AdminUser -->
<g id="node2" class="node"><title>AdminUser</title>
<ellipse fill="none" stroke="black" cx="241.003" cy="-177" rx="51.2415" ry="18"/>
<text text-anchor="middle" x="241.003" y="-172.8" font-family="Times,serif" font-size="14.00">AdminUser</text>
</g>
<!-- BlogCategory -->
<g id="node3" class="node"><title>BlogCategory</title>
<ellipse fill="none" stroke="black" cx="370.003" cy="-177" rx="59.9444" ry="18"/>
<text text-anchor="middle" x="370.003" y="-172.8" font-family="Times,serif" font-size="14.00">BlogCategory</text>
</g>
<!-- BlogPost -->
<g id="node4" class="node"><title>BlogPost</title>
<ellipse fill="none" stroke="black" cx="370.003" cy="-104" rx="42.5888" ry="18"/>
<text text-anchor="middle" x="370.003" y="-99.8" font-family="Times,serif" font-size="14.00">BlogPost</text>
</g>
<!-- BlogCategory&#45;&gt;BlogPost -->
<g id="edge2" class="edge"><title>BlogCategory&#45;&gt;BlogPost</title>
<path fill="none" stroke="#10c1d0" d="M370.003,-150.791C370.003,-144.832 370.003,-138.45 370.003,-132.399"/>
<ellipse fill="none" stroke="#10c1d0" cx="370.003" cy="-154.813" rx="4" ry="4"/>
<polygon fill="#10c1d0" stroke="#10c1d0" points="370.003,-132.029 374.503,-122.029 370.003,-127.029 370.003,-122.029 370.003,-122.029 370.003,-122.029 370.003,-127.029 365.503,-122.029 370.003,-132.029 370.003,-132.029"/>
</g>
<!-- Comment -->
<g id="node5" class="node"><title>Comment</title>
<ellipse fill="none" stroke="black" cx="501.003" cy="-18" rx="44.9768" ry="18"/>
<text text-anchor="middle" x="501.003" y="-13.8" font-family="Times,serif" font-size="14.00">Comment</text>
</g>
<!-- BlogPost&#45;&gt;Comment -->
<g id="edge8" class="edge"><title>BlogPost&#45;&gt;Comment</title>
<path fill="none" stroke="#69c81a" d="M399.26,-84.2394C420.027,-70.9236 447.886,-53.0593 469.202,-39.3912"/>
<ellipse fill="none" stroke="#69c81a" cx="395.89" cy="-86.4007" rx="4.00002" ry="4.00002"/>
<polygon fill="#69c81a" stroke="#69c81a" points="469.479,-39.2137 480.326,-37.604 473.688,-36.5148 477.897,-33.8159 477.897,-33.8159 477.897,-33.8159 473.688,-36.5148 475.468,-30.0277 469.479,-39.2137 469.479,-39.2137"/>
</g>
<!-- ActsAsTaggableOn::Tagging -->
<g id="node8" class="node"><title>ActsAsTaggableOn::Tagging</title>
<ellipse fill="none" stroke="black" cx="113.003" cy="-18" rx="113.006" ry="18"/>
<text text-anchor="middle" x="113.003" y="-13.8" font-family="Times,serif" font-size="14.00">ActsAsTaggableOn::Tagging</text>
</g>
<!-- BlogPost&#45;&gt;ActsAsTaggableOn::Tagging -->
<g id="edge4" class="edge"><title>BlogPost&#45;&gt;ActsAsTaggableOn::Tagging</title>
<path fill="none" stroke="#e437e6" d="M320.079,-99.5514C263.818,-94.9013 176.553,-85.1576 148.561,-68 139.516,-62.4555 132.076,-53.6656 126.381,-45.0515"/>
<ellipse fill="none" stroke="#e437e6" cx="324.157" cy="-99.8797" rx="4" ry="4"/>
<polygon fill="#e437e6" stroke="#e437e6" points="126.254,-44.8415 124.936,-33.9552 123.669,-40.5616 121.084,-36.2817 121.084,-36.2817 121.084,-36.2817 123.669,-40.5616 117.232,-38.6083 126.254,-44.8415 126.254,-44.8415"/>
<text text-anchor="middle" x="172.723" y="-56.8" font-family="Times,serif" font-size="14.00">taggings</text>
</g>
<!-- BlogPost&#45;&gt;ActsAsTaggableOn::Tagging -->
<g id="edge6" class="edge"><title>BlogPost&#45;&gt;ActsAsTaggableOn::Tagging</title>
<path fill="none" stroke="#ace15b" d="M327.96,-91.0178C305.478,-84.4754 277.37,-76.0802 252.458,-68 223.562,-58.6275 191.571,-47.4456 165.526,-38.1317"/>
<ellipse fill="none" stroke="#ace15b" cx="331.821" cy="-92.1372" rx="4.00001" ry="4.00001"/>
<polygon fill="#ace15b" stroke="#ace15b" points="165.266,-38.0385 157.373,-30.4255 160.56,-36.3498 155.854,-34.6611 155.854,-34.6611 155.854,-34.6611 160.56,-36.3498 154.334,-38.8967 165.266,-38.0385 165.266,-38.0385"/>
<text text-anchor="middle" x="288.775" y="-56.8" font-family="Times,serif" font-size="14.00">tag_taggings</text>
</g>
<!-- ActsAsTaggableOn::Tag -->
<g id="node9" class="node"><title>ActsAsTaggableOn::Tag</title>
<ellipse fill="none" stroke="black" cx="341.003" cy="-18" rx="97.0617" ry="18"/>
<text text-anchor="middle" x="341.003" y="-13.8" font-family="Times,serif" font-size="14.00">ActsAsTaggableOn::Tag</text>
</g>
<!-- BlogPost&#45;&gt;ActsAsTaggableOn::Tag -->
<g id="edge5" class="edge"><title>BlogPost&#45;&gt;ActsAsTaggableOn::Tag</title>
<path fill="none" stroke="#a8154f" d="M339.267,-81.7759C335.341,-77.6803 331.89,-73.0663 329.575,-68 326.43,-61.1176 326.722,-53.2824 328.485,-45.9273"/>
<polygon fill="#a8154f" stroke="#a8154f" points="339.325,-81.8282 343.672,-91.8956 343.016,-85.2009 346.707,-88.5735 346.707,-88.5735 346.707,-88.5735 343.016,-85.2009 349.743,-85.2513 339.325,-81.8282 339.325,-81.8282"/>
<polygon fill="#a8154f" stroke="#a8154f" points="328.515,-45.8365 335.894,-37.7254 330.065,-41.0831 331.616,-36.3296 331.616,-36.3296 331.616,-36.3296 330.065,-41.0831 327.338,-34.9339 328.515,-45.8365 328.515,-45.8365"/>
<text text-anchor="middle" x="357.217" y="-56.8" font-family="Times,serif" font-size="14.00">base_tags</text>
</g>
<!-- BlogPost&#45;&gt;ActsAsTaggableOn::Tag -->
<g id="edge7" class="edge"><title>BlogPost&#45;&gt;ActsAsTaggableOn::Tag</title>
<path fill="none" stroke="#3e0d0b" d="M384.419,-76.728C386.722,-69.2005 387.384,-61.1113 384.003,-54 381.996,-49.7784 379.203,-45.899 375.994,-42.3838"/>
<polygon fill="#3e0d0b" stroke="#3e0d0b" points="384.357,-76.8834 376.47,-84.5022 382.504,-81.527 380.65,-86.1707 380.65,-86.1707 380.65,-86.1707 382.504,-81.527 384.829,-87.8391 384.357,-76.8834 384.357,-76.8834"/>
<polygon fill="#3e0d0b" stroke="#3e0d0b" points="375.73,-42.1351 371.536,-32.0031 372.09,-38.707 368.45,-35.279 368.45,-35.279 368.45,-35.279 372.09,-38.707 365.365,-38.5548 375.73,-42.1351 375.73,-42.1351"/>
<text text-anchor="middle" x="397.279" y="-56.8" font-family="Times,serif" font-size="14.00">tags</text>
</g>
<!-- Page -->
<g id="node6" class="node"><title>Page</title>
<ellipse fill="none" stroke="black" cx="551.003" cy="-177" rx="27.0958" ry="18"/>
<text text-anchor="middle" x="551.003" y="-172.8" font-family="Times,serif" font-size="14.00">Page</text>
</g>
<!-- ActiveRecord::Base -->
<g id="node7" class="node"><title>ActiveRecord::Base</title>
<ellipse fill="none" stroke="black" cx="458.003" cy="-268.5" rx="81.1422" ry="18"/>
<text text-anchor="middle" x="458.003" y="-264.3" font-family="Times,serif" font-size="14.00">ActiveRecord::Base</text>
</g>
<!-- ActiveRecord::Base&#45;&gt;AdminUser -->
<g id="edge1" class="edge"><title>ActiveRecord::Base&#45;&gt;AdminUser</title>
<path fill="none" stroke="black" d="M421.192,-252.318C379.595,-235.161 312.554,-207.511 273.036,-191.212"/>
</g>
<!-- ActiveRecord::Base&#45;&gt;BlogCategory -->
<g id="edge3" class="edge"><title>ActiveRecord::Base&#45;&gt;BlogCategory</title>
<path fill="none" stroke="black" d="M441.451,-250.666C425.618,-234.563 401.891,-210.432 386.183,-194.456"/>
</g>
<!-- ActiveRecord::Base&#45;&gt;BlogPost -->
<g id="edge9" class="edge"><title>ActiveRecord::Base&#45;&gt;BlogPost</title>
<path fill="none" stroke="black" d="M458.668,-250.408C458.771,-227.866 456.21,-187.703 439.003,-159 428.678,-141.778 410.656,-127.96 395.619,-118.613"/>
</g>
<!-- ActiveRecord::Base&#45;&gt;Comment -->
<g id="edge10" class="edge"><title>ActiveRecord::Base&#45;&gt;Comment</title>
<path fill="none" stroke="black" d="M462.171,-250.21C464.618,-239.76 467.676,-226.154 470.003,-214 482.539,-148.516 493.921,-69.9744 498.666,-36.0169"/>
</g>
<!-- ActiveRecord::Base&#45;&gt;Page -->
<g id="edge11" class="edge"><title>ActiveRecord::Base&#45;&gt;Page</title>
<path fill="none" stroke="black" d="M475.495,-250.666C492.964,-233.854 519.527,-208.291 536.045,-192.395"/>
</g>
</g>
</svg>
